<?xml version="1.0" encoding="utf-8"?>
<!-- Generator: Adobe Illustrator 22.1.0, SVG Export Plug-In . SVG Version: 6.00 Build 0)  -->
<svg version="1.1" id="Laag_1" xmlns="http://www.w3.org/2000/svg" xmlns:xlink="http://www.w3.org/1999/xlink" x="0px" y="0px"
	 viewBox="0 0 557 88" style="enable-background:new 0 0 557 88;" xml:space="preserve">
<g>
	<path style="fill:#FFFFFF;" d="M25.6,11.8h39.1c3.4,0,6.4,1.2,8.8,3.6c2.4,2.4,3.6,5.3,3.6,8.7v51.6H65.4V54.2H25v21.5H13.3V24.1
		c0-3.4,1.2-6.3,3.6-8.7S22.2,11.8,25.6,11.8z M25,42.5h40.4V24.1c0-0.4-0.2-0.6-0.6-0.6H25.6c-0.4,0-0.6,0.2-0.6,0.6V42.5z"/>
	<path style="fill:#FFFFFF;" d="M150.7,24.1V29h-11.8v-4.9c0-0.4-0.2-0.6-0.5-0.6H99.2c-0.4,0-0.6,0.2-0.6,0.6v13.1
		c0,0.4,0.2,0.6,0.6,0.6h39.2c3.4,0,6.3,1.2,8.7,3.6c2.4,2.4,3.6,5.3,3.6,8.7v13.1c0,3.4-1.2,6.3-3.6,8.7c-2.4,2.4-5.3,3.6-8.7,3.6
		H99.2c-3.4,0-6.3-1.2-8.7-3.6c-2.4-2.4-3.6-5.3-3.6-8.7v-4.9h11.7v4.9c0,0.4,0.2,0.6,0.6,0.6h39.2c0.4,0,0.5-0.2,0.5-0.6V50.2
		c0-0.4-0.2-0.6-0.5-0.6H99.2c-3.4,0-6.3-1.2-8.7-3.6c-2.4-2.4-3.6-5.3-3.6-8.7V24.1c0-3.4,1.2-6.3,3.6-8.7c2.4-2.4,5.3-3.6,8.7-3.6
		h39.2c3.4,0,6.3,1.2,8.7,3.6C149.5,17.8,150.7,20.7,150.7,24.1z"/>
	<path style="fill:#FFFFFF;" d="M157,11.8h63.9v11.7h-26v52.2h-11.8V23.5H157V11.8z"/>
	<path style="fill:#FFFFFF;" d="M291.4,24.2v17.2c0,3.4-1.2,6.3-3.6,8.7c-2.4,2.4-5.4,3.6-8.8,3.6h-3.5l15.9,18.9v3h-12.8
		l-18.5-21.9h-20.7h-0.3v21.9h-11.7V11.9h51.5c3.4,0,6.4,1.2,8.8,3.6C290.1,17.9,291.4,20.8,291.4,24.2z M239.8,42h39.1
		c0.4,0,0.6-0.2,0.6-0.6V24.2c0-0.4-0.2-0.6-0.6-0.6h-39.1c-0.4,0-0.6,0.2-0.6,0.6v17.2C239.2,41.8,239.4,42,239.8,42z"/>
	<path style="fill:#FFFFFF;" d="M312.9,11.8h39.2c3.4,0,6.3,1.2,8.7,3.6c2.4,2.4,3.6,5.3,3.6,8.7v39.2c0,3.4-1.2,6.3-3.6,8.7
		c-2.4,2.4-5.3,3.6-8.7,3.6h-39.2c-3.4,0-6.3-1.2-8.7-3.6c-2.4-2.4-3.6-5.3-3.6-8.7V24.1c0-3.4,1.2-6.3,3.6-8.7
		C306.6,13,309.5,11.8,312.9,11.8z M312.9,64h39.2c0.4,0,0.5-0.2,0.5-0.6V24.1c0-0.4-0.2-0.6-0.5-0.6h-39.2c-0.4,0-0.6,0.2-0.6,0.6
		v39.2C312.3,63.8,312.5,64,312.9,64z"/>
	<path style="fill:#FFFFFF;" d="M410.8,61.5l28.6-49.7h13.6L416,75.7h-10.6l-36.9-63.9h13.6L410.8,61.5z"/>
	<path style="fill:#FFFFFF;" d="M459.5,75.7V11.8h11.7v63.9H459.5z"/>
	<path style="fill:#FFFFFF;" d="M491.4,11.8h39.1c3.4,0,6.4,1.2,8.8,3.6c2.4,2.4,3.6,5.3,3.6,8.7v51.6h-11.8V54.2h-40.4v21.5h-11.7
		V24.1c0-3.4,1.2-6.3,3.6-8.7C485.1,13,488,11.8,491.4,11.8z M490.8,42.5h40.4V24.1c0-0.4-0.2-0.6-0.6-0.6h-39.1
		c-0.4,0-0.6,0.2-0.6,0.6V42.5z"/>
</g>
</svg>
